<?xml version="1.0" encoding="utf-8"?>
<!-- Generator: Adobe Illustrator 23.0.1, SVG Export Plug-In . SVG Version: 6.00 Build 0)  -->
<svg version="1.1" id="Layer_1" xmlns="http://www.w3.org/2000/svg" xmlns:xlink="http://www.w3.org/1999/xlink" x="0px" y="0px"
	 viewBox="0 0 137.5 40" style="enable-background:new 0 0 137.5 40;" xml:space="preserve">
<style type="text/css">
	.st0{fill:#FFFFFF;}
	.st1{fill:#FFCB05;}
</style>
<g>
	<path class="st0" d="M30.3,10.4h5.8c0.7,0,1.4,0.1,1.9,0.3c0.5,0.2,1,0.5,1.3,0.9c0.4,0.4,0.6,0.8,0.8,1.3c0.2,0.5,0.3,1.1,0.3,1.7
		c0,0.5-0.1,1.1-0.3,1.6c-0.2,0.5-0.5,1-0.8,1.3c-0.4,0.4-0.8,0.7-1.4,0.9c-0.6,0.2-1.2,0.4-2,0.4h-5.6V10.4z M35.6,17
		c0.8,0,1.4-0.3,1.8-0.7c0.4-0.4,0.6-1,0.6-1.7c0-0.7-0.2-1.2-0.6-1.7c-0.4-0.4-1-0.8-1.8-0.8h-2.9V17H35.6z M63.2,18.8h-2.5v-8.4
		h5.9c1.2,0,2,0.2,2.6,0.6c0.5,0.4,0.8,1.1,0.8,2c0,0.7-0.3,1.3-0.6,1.7c-0.3,0.4-0.8,0.6-1,0.7l1.7,3.3h-2.5l-1.5-3h-2.7L63.2,18.8
		z M66.3,14c0.5,0,0.8-0.1,1-0.3c0.2-0.2,0.3-0.4,0.3-0.6c0-0.2-0.1-0.4-0.3-0.6c-0.2-0.2-0.5-0.3-1-0.3h-3.1V14H66.3z M24.5,9.1
		h-3.1l-5.5,11.1h2.8l1.4-2.7h6l1.4,2.7l2.8,0L24.5,9.1z M21.1,15.2l1.9-3.7l1.9,3.7H21.1z M77.6,10.4h-2.9l-4.2,8.4H73l0.8-1.7h4.6
		l0.8,1.7l2.5,0L77.6,10.4z M74.8,15.2l1.3-2.6l1.3,2.6H74.8z M58.3,10.4h-2.5v8.4h2.5V10.4z M49.8,10.4l-2.2,4.1l-2.2-4.1l-3.6,0
		v8.4h2.5v-5.9l3.3,6l3.3-5.9v5.9h2.5v-8.4L49.8,10.4z M85.4,17.9V9.1h-2.7v11.1h9.3v-2.2H85.4z"/>
	<path class="st0" d="M77.9,24.4l-0.4,0.7h2.9l-1.1,2.1h-2.9l-0.4,0.7h4.9l-1.1,2.1h-7.2l4-7.6h7.2l-1.1,2.1H77.9z M84.2,22.3
		l-1.1,2.1h2.6l-2.9,5.5h2.5l2.9-5.5h2.6l1.1-2.1H84.2z M74.7,24.5c-0.2,0.4-0.6,0.8-1,1.1c-0.2,0.2-0.5,0.3-0.9,0.4
		c0.4,0.1,0.6,0.3,0.7,0.6c0.1,0.3,0,0.7-0.2,1.2c-0.2,0.4-0.5,0.7-0.8,1c-0.4,0.3-0.7,0.5-1.2,0.7c-0.3,0.1-0.6,0.2-1.1,0.2
		c-0.6,0.1-1,0.1-1.1,0.1h-4.2v0l0.5-0.9l0,0c0.2-0.2,0.4-0.3,0.6-0.5c0.8-0.6,1.6-1.2,2.7-1.9c0.6-0.4,1.2-0.8,1.8-1.1l0,0h0.2
		c0.4,0,0.6-0.1,0.8-0.2c0.2-0.1,0.3-0.3,0.4-0.5c0,0,0-0.1,0.1-0.1l0,0l0.1,0c0.9-0.5,1.8-0.8,2.7-1.1l0.1,0l0,0
		C75,23.8,74.9,24.2,74.7,24.5z M70.9,27.1C70.8,27,70.6,27,70.2,27h-1.1l-0.7,1.3h1.1c0.4,0,0.7-0.1,0.9-0.2h0
		c0.2-0.1,0.4-0.3,0.5-0.5C71,27.4,71,27.3,70.9,27.1z"/>
	<path class="st1" d="M13.7,24.4l1-2h51.6l-1,2H13.7z M63.9,27.1l1-2H13.3l-1,2H63.9z M62.5,29.9l1-2H11.9l-1,2H62.5z M70.4,23.9
		l-0.7,1.3l0.2,0l0,0l0,0c-0.3,0.2-0.5,0.3-0.8,0.5c-0.3,0.2-0.5,0.3-0.8,0.5c-0.5,0.3-1,0.7-1.5,1c-0.4,0.3-0.9,0.7-1.3,1l0,0l0,0
		c0.1-0.2,0.3-0.5,0.4-0.7l0.4-0.7l0.8-1.5l0.8-1.5l0.8-1.5l0-0.1l0.1,0c0.5,0,1,0,1.6,0l0.4,0l0.4,0l0.8,0c0.3,0,0.5,0,0.8,0l0.4,0
		l0.2,0l0.1,0l0,0l0,0c0.1,0,0.1,0,0.2,0l0.1,0c0,0,0.1,0,0.1,0c0.1,0,0.2,0,0.3,0.1c0.2,0.1,0.4,0.2,0.5,0.3l0,0.1l-0.1,0
		c-0.2,0.1-0.4,0.2-0.6,0.2c-0.2,0.1-0.4,0.2-0.6,0.3c-0.4,0.2-0.8,0.4-1.3,0.6l0,0l0,0c0,0,0,0-0.1,0c0,0-0.1,0-0.1,0
		c-0.1,0-0.1,0-0.2,0c-0.1,0-0.1,0-0.2,0c-0.1,0-0.1,0-0.2,0L70.4,23.9z"/>
</g>
</svg>
